{"title":"Money Monster 2016 HQCAM x264 -COX","uid":14767771,"size":788215057,"categoryP":"video","categoryS":"movies","magnet":"?xt=urn:btih:a746a0080483c966f70127821d6c9bae3d0dc0c6&amp;dn=Money+Monster+2016+HQCAM+x264+-COX&amp;tr=udp%3A%2F%2Ftracker.leechers-paradise.org%3A6969&amp;tr=udp%3A%2F%2Fzer0day.ch%3A1337&amp;tr=udp%3A%2F%2Fopen.demonii.com%3A1337&amp;tr=udp%3A%2F%2Ftracker.coppersurfer.tk%3A6969&amp;tr=udp%3A%2F%2Fexodus.desync.com%3A6969","seeders":8,"leechers":3,"uploader":"makintos13","files":2,"time":1464898722,"description":"Money Monster 2016 HQCAM x264 -COX\r\n \nhttps://imgmak.com/Tf6\r\n \nhttps://imgmak.com/Tf9\r\n \nhttps://imgmak.com/TfM\r\n \nhttps://imgmak.com/TfO\r\n\r\n\r\nIMDB : http://www.imdb.com/title/tt2241351/\r\n\r\nFormat : MPEG-4\r\nFormat profile : Base Media\r\nCodec ID : isom (isom/avc1)\r\nFile size : 752 MiB\r\nDuration : 1h 33mn\r\nOverall bit rate : 1 121 Kbps\r\nEncoded date : UTC 2016-05-30 12:09:35\r\nTagged date : UTC 2016-05-30 12:09:35\r\n\r\nVideo\r\nID : 1\r\nFormat : AVC\r\nFormat/Info : Advanced Video Codec\r\nFormat profile :   \r\nFormat settings, CABAC : Yes\r\nFormat settings, ReFrames : 3 frames\r\nCodec ID : avc1\r\nCodec ID/Info : Advanced Video Coding\r\nDuration : 1h 33mn\r\nBit rate : 1 000 Kbps\r\nMaximum bit rate : 3 736 Kbps\r\nWidth : 720 pixels\r\nHeight : 352 pixels\r\nDisplay aspect ratio : 2.045\r\nFrame rate mode : Constant\r\nFrame rate : 29.970 (30000/1001) fps\r\nOriginal frame rate : 29.970 (29970/1000) fps\r\nColor space : YUV\r\nChroma subsampling : 4:2:0\r\nBit depth : 8 bits\r\nScan type : Progressive\r\nBits/(Pixel*Frame) : 0.132\r\nStream size : 664 MiB (88%)\r\nTagged date : UTC 2016-05-30 12:09:50\r\n\r\nAudio\r\nID : 2\r\nFormat : MPEG Audio\r\nFormat version : Version 1\r\nFormat profile : Layer 3\r\nCodec ID : 6B\r\nDuration : 1h 33mn\r\nBit rate mode : Constant\r\nBit rate : 128 Kbps\r\nMaximum bit rate : 132 Kbps\r\nChannel(s) : 2 channels\r\nSampling rate : 48.0 KHz\r\nCompression mode : Lossy\r\nStream size : 85.8 MiB (11%)\r\nWriting library : LAME3.97\r\nEncoding settings : -m s -V 4 -q 2 -lowpass 17 -b 128\r\nEncoded date : UTC 2016-05-30 12:09:49\r\nTagged date : UTC 2016-05-30 12:09:50","torrent":{"xt":"urn:btih:a746a0080483c966f70127821d6c9bae3d0dc0c6","amp;dn":"Money+Monster+2016+HQCAM+x264+-COX","amp;tr":["udp%3A%2F%2Ftracker.leechers-paradise.org%3A6969","udp%3A%2F%2Fzer0day.ch%3A1337","udp%3A%2F%2Fopen.demonii.com%3A1337","udp%3A%2F%2Ftracker.coppersurfer.tk%3A6969","udp%3A%2F%2Fexodus.desync.com%3A6969"],"infoHash":"a746a0080483c966f70127821d6c9bae3d0dc0c6","infoHashBuffer":{"type":"Buffer","data":[167,70,160,8,4,131,201,102,247,1,39,130,29,108,155,174,61,13,192,198]},"announce":[],"urlList":[]}}